<?xml version="1.0" encoding="UTF-8" standalone="no"?>
<!-- Created with Inkscape (http://www.inkscape.org/) -->

<svg
   xmlns:dc="http://purl.org/dc/elements/1.1/"
   xmlns:cc="http://creativecommons.org/ns#"
   xmlns:rdf="http://www.w3.org/1999/02/22-rdf-syntax-ns#"
   xmlns:svg="http://www.w3.org/2000/svg"
   xmlns="http://www.w3.org/2000/svg"
   xmlns:sodipodi="http://sodipodi.sourceforge.net/DTD/sodipodi-0.dtd"
   xmlns:inkscape="http://www.inkscape.org/namespaces/inkscape"
   width="200"
   height="60"
   id="svg3226"
   version="1.1"
   inkscape:version="0.48.4 r9939"
   sodipodi:docname="New document 5">
  <defs
     id="defs3228" />
  <sodipodi:namedview
     id="base"
     pagecolor="#ffffff"
     bordercolor="#666666"
     borderopacity="1.0"
     inkscape:pageopacity="0.0"
     inkscape:pageshadow="2"
     inkscape:zoom="2.8"
     inkscape:cx="28.332378"
     inkscape:cy="4.5013009"
     inkscape:document-units="px"
     inkscape:current-layer="layer1"
     showgrid="false"
     showguides="true"
     inkscape:guide-bbox="true"
     inkscape:window-width="1440"
     inkscape:window-height="851"
     inkscape:window-x="0"
     inkscape:window-y="0"
     inkscape:window-maximized="1" />
  <metadata
     id="metadata3231">
    <rdf:RDF>
      <cc:Work
         rdf:about="">
        <dc:format>image/svg+xml</dc:format>
        <dc:type
           rdf:resource="http://purl.org/dc/dcmitype/StillImage" />
        <dc:title></dc:title>
      </cc:Work>
    </rdf:RDF>
  </metadata>
  <g
     inkscape:label="Layer 1"
     inkscape:groupmode="layer"
     id="layer1"
     transform="translate(0,-992.36218)">
    <g
       transform="matrix(0.1063082,0,0,0.1063082,126.631,786.56525)"
       id="g3330">
      <g
         id="g3332"
         transform="matrix(0.43289093,0,0,0.43289093,-1790.885,2210.8459)">
        <g
           id="g3334">
          <path
             style="color:#000000;fill:#aa0050;fill-opacity:1;fill-rule:nonzero;stroke:none;stroke-width:80;marker:none;visibility:visible;display:inline;overflow:visible;enable-background:accumulate"
             d="m 1465.375,-635.25 c -44.32,0 -80,35.68 -80,80 l 0,352 c 0,44.32 35.68,80 80,80 l 319.25,0 c 6.8887,-10.63133 12.2346,-22.19179 16.0312,-34.375 17.589,-56.44194 0.8463,-127.13751 -60.0937,-182.34375 -18.4419,5.13981 -38.5704,4.91785 -56.3125,-2.65625 -19.6408,-8.38467 -35.7942,-26.47765 -40.75,-53.34375 -4.6412,-25.16042 -4.8064,-48.67017 5.2188,-67.21875 8.7039,-16.10435 25.6968,-26.49561 49.1562,-28.4375 -7.3834,-83.31071 -42.7121,-121.44039 -76.5938,-140.3125 -2.1201,-1.18091 -4.2416,-2.2826 -6.3437,-3.3125 l -89.1875,0 75.25,269.3125 -48.1562,13.46875 -79,-282.78125 -8.4688,0 z m 186.5312,0 c 32.9294,26.61849 62.1842,73.47549 66.7813,152.75 l 0.625,10.84375 -10.875,-0.28125 c -24.5588,-0.67054 -35.7045,6.37062 -42.125,18.25 -6.4205,11.87938 -7.3437,31.19244 -3.125,54.0625 3.904,21.16435 14.7909,32.59916 28.9063,38.625 14.1152,6.02584 31.9985,5.85982 47.75,0.375 l 5.4687,-1.90625 4.375,3.78125 c 69.4435,60.18225 90.5778,141.22967 70.0625,207.0625 -3.0809,9.88662 -7.1192,19.39824 -12.0625,28.4375 l 9.6875,0 c 44.32,0 80,-35.68 80,-80 l 0,-352 c 0,-44.32 -35.68,-80 -80,-80 l -165.4688,0 z"
             id="path3336"
             inkscape:connector-curvature="0" />
          <path
             style="color:#000000;fill:#008000;fill-opacity:1;fill-rule:nonzero;stroke:none;stroke-width:80;marker:none;visibility:visible;display:inline;overflow:visible;enable-background:accumulate"
             d="m 2037.375,-635.25 c -44.32,0 -80,35.68 -80,80 l 0,89.0625 89.75,-9.4375 2.0937,19.875 -91.8437,9.65625 0,50.28125 97.0624,-10.21875 2.0938,19.90625 -99.1562,10.4375 0,50.25 104.375,-10.96875 2.0937,19.90625 -106.4687,11.1875 0,50.28125 111.7187,-11.75 2.0625,19.875 -113.7812,11.96875 0,31.6875 c 0,6.32232 0.7513,12.48281 2.125,18.375 l 116.9062,-12.28125 2.0938,19.875 -111.75,11.75 c 13.4343,25.21117 39.9557,42.28125 70.625,42.28125 l 111.125,0 -43.2813,-411.1875 19.875,-2.09375 43.5,413.28125 54.4687,0 -22.0937,-421.5625 20,-1.03125 22.1563,422.59375 53.1562,0 0,-426.5625 20,0 0,426.5625 53,0 22.3438,-425.75 19.9687,1.0625 -22.25,424.6875 0.031,0 c 44.32,0 80,-35.68 80,-80 l 0,-352 c 0,-44.32 -35.68,-80 -80,-80 l -352,0 z"
             id="path3338"
             inkscape:connector-curvature="0" />
          <g
             id="g3340"
             style="fill:#000080"
             transform="translate(-85.1253,-102.3048)">
            <path
               id="path3342"
               d="m 2120.4375,39.0625 c -6.0154,0.151383 -11.8604,0.977145 -17.4687,2.375 l 40.5624,70.25 42.7188,74 3.9375,2.59375 c 2.2243,1.46636 4.0301,2.26149 5.8125,2.46875 1.7824,0.20726 3.5795,-0.15721 5.875,-1.09375 6.3656,-2.59717 9.1884,-7.70292 8.0625,-14.59375 -0.511,-3.12674 -2.4493,-6.82521 -20,-37.9375 l -19.4375,-34.46875 -0.094,-0.21875 0.063,-0.1875 1.0312,-3.125 c 0.4571,-1.387615 0.7981,-2.294346 1.4375,-3 0.6394,-0.705654 1.5197,-1.141106 2.8437,-1.71875 1.8861,-0.8228 3.9349,-1.143893 5.4063,-0.75 l 2.0937,0.5625 0.2188,0.03125 0.094,0.1875 29.125,49.625 c 15.2589,25.99067 23.0483,39.20537 27.6562,46.25 2.304,3.52232 3.8198,5.49437 5.0625,6.75 1.2427,1.25563 2.1932,1.81133 3.5313,2.53125 3.1122,1.67459 7.3866,1.16141 11.0937,-0.8125 3.7071,-1.97391 6.7877,-5.3669 7.5625,-9.15625 0.2354,-1.15015 0.4097,-1.92392 0.094,-3.3125 -0.316,-1.38858 -1.1499,-3.39439 -2.875,-6.78125 -3.4506,-6.77373 -10.5271,-19.0963 -24.5626,-43.40625 -14.1331,-24.47941 -21.2314,-36.753698 -24.625,-43.4375 -1.6967,-3.341901 -2.4834,-5.293982 -2.75,-6.71875 -0.2665,-1.424768 0.046,-2.307801 0.4063,-3.28125 0.2227,-0.601299 0.7231,-1.193831 1.4063,-1.8125 0.6831,-0.618669 1.549,-1.250221 2.4687,-1.78125 1.2843,-0.74147 2.2425,-1.168614 3.1875,-1.34375 0.945,-0.175136 1.8405,-0.08345 2.9688,0.21875 l 2.6874,0.71875 0.1876,0.0625 0.094,0.1875 31.8125,54.34375 c 17.6919,30.2416 25.8269,44.32633 30.375,50.96875 2.274,3.32121 3.6595,4.75658 4.8125,5.4375 1.153,0.68092 2.182,0.67482 3.9687,1.03125 3.6426,0.72678 6.6413,-0.11068 10.7813,-3.0625 3.4048,-2.42756 5.216,-6.3088 5.0625,-11 l -0.094,-3.3125 -30.9374,-54.3125 -31,-54.40625 -0.094,-0.1875 0.031,-0.1875 0.75,-2.71875 c 1.1119,-4.147814 5.5082,-6.70465 9.6563,-5.59375 l 2.7187,0.75 0.2188,0.03125 0.094,0.1875 26.2187,44.65625 c 14.5695,24.83359 21.3165,36.49511 25.25,42.0625 1.9668,2.7837 3.1907,4.03145 4.3125,4.65625 1.1218,0.6248 2.2377,0.67969 4,1.03125 5.7675,1.15072 10.8627,-1.1317 14.3438,-6.5 1.9062,-2.94495 2.3671,-4.97631 1.9062,-8.5625 -0.1304,-1.01499 -1.3861,-3.87167 -7,-13.90625 -5.6139,-10.03458 -15.5617,-27.304182 -33.0312,-57.5625 -5.2127,-9.028582 -9.6981,-16.801251 -13.6876,-23.71875 l -164.2812,0 c -0.6925,0 -1.3743,-0.01732 -2.0625,0 z"
               style="color:#000000;fill:#000080;fill-opacity:1;fill-rule:nonzero;stroke:none;stroke-width:80;marker:none;visibility:visible;display:inline;overflow:visible;enable-background:accumulate"
               inkscape:connector-curvature="0" />
            <path
               id="path3344"
               d="m 2306.4688,39.0625 15.75,27.625 34.25,60.03125 0.062,0.0937 0,0.0937 0.5626,4.25 c 0.8593,6.42179 -0.078,12.47415 -2.8126,17.8125 -3.2431,6.33085 -5.6517,8.72777 -13.0624,13 -5.1072,2.944 -7.0859,3.71391 -10.1876,4 l -3.1562,0.28125 0.9688,3.8125 c 1.514,5.92815 1.0402,13.70472 -1.1563,18.71875 -4.707,10.7454 -15.6002,18.3515 -27.25,19 -4.9118,0.27341 -13.0749,-1.99179 -17.375,-4.78125 -1.1529,-0.74786 -1.851,-1.06985 -2.125,-1.09375 -0.137,-0.012 -0.1776,0.0111 -0.2813,0.0937 -0.1033,0.0827 -0.2567,0.27114 -0.4374,0.5625 -1.6883,2.71815 -5.1601,5.79674 -9.0938,8.46875 -3.9337,2.67201 -8.2907,4.89676 -11.7812,5.71875 -12.3126,2.89929 -23.9474,-3.23152 -33.1563,-17.34375 l -3.6563,-5.59375 -2.6874,2.9375 c -4.6832,5.12863 -14.2972,10.13994 -20.75,10.75 -8.3439,0.78889 -17.3635,-3.11463 -24.625,-10.5625 -0.3217,-0.32982 -0.7643,-0.99619 -1.5,-2.125 -0.736,-1.12881 -1.727,-2.685 -2.9063,-4.59375 -2.3585,-3.81749 -5.5371,-9.07434 -9.2813,-15.34375 -7.4879,-12.53883 -17.2054,-29.09502 -27.0624,-46 C 2114.0045,95.065182 2093.8108,59.854557 2090,52.09375 2089.1625,50.388058 2088.3543,48.690418 2087.5938,47 2060.871,59.925435 2042.5,87.281954 2042.5,119.0625 l 0,352 c 0,44.32 35.68,80 80,80 l 352,0 c 44.32,0 80,-35.68 80,-80 l 0,-352 c 0,-44.32 -35.68,-80 -80,-80 l -168.0312,0 z m 81.0312,227.5 c 69.283,0 125.6562,56.37323 125.6562,125.65625 1e-4,69.28302 -56.3732,125.6875 -125.6562,125.6875 -69.2831,0 -125.6562,-56.40448 -125.6562,-125.6875 0,-69.28302 56.3731,-125.65625 125.6562,-125.65625 z m -10,20.5 c -53.7611,5.01665 -95.6875,50.05732 -95.6875,105.15625 0,33.95054 15.9239,64.09355 40.7187,83.40625 l 0,-76.125 0,-10 20,0 0,10 0,86 0,2.40625 c 13.6361,6.39737 28.8784,9.96875 44.9688,9.96875 16.0904,0 31.3366,-3.57209 44.9688,-9.96875 l 0,-2.40625 0,-86 0,-10 20,0 0,10 0,76.125 c 24.7828,-19.31094 40.6874,-49.45678 40.6874,-83.40625 0,-55.09893 -41.8984,-100.1396 -95.6562,-105.15625 l 0,3.03125 0,85.84375 0,10 -20,0 0,-10 0,-85.84375 0,-3.03125 z"
               style="color:#000000;fill:#000080;fill-opacity:1;fill-rule:nonzero;stroke:none;stroke-width:80;marker:none;visibility:visible;display:inline;overflow:visible;enable-background:accumulate"
               inkscape:connector-curvature="0" />
          </g>
          <path
             style="color:#000000;fill:#ff8400;fill-opacity:1;fill-rule:nonzero;stroke:none;stroke-width:80;marker:none;visibility:visible;display:inline;overflow:visible;enable-background:accumulate"
             d="m 1465.375,-63.25 c -44.32,0 -80,35.68 -80,80 l 0,305.1875 c 23.7931,17.42799 43.0434,25.41842 58.5313,27.8125 17.5947,2.71981 30.7721,-1.20914 42.6562,-7.78125 11.8841,-6.57211 22.0382,-16.02149 32,-24.09375 4.9809,-4.03613 9.9371,-7.75945 15.5938,-10.4375 0.8945,-0.42355 1.8634,-0.7352 2.8124,-1.09375 -4.2305,-23.19131 14.0142,-55.21981 66.5938,-64.65625 25.5711,-4.58919 43.4843,-4.96029 57,3.125 6.7578,4.04264 11.6676,10.44129 14.4062,17.625 0.8496,2.22828 1.4674,4.55572 2,6.9375 6.1296,-2.65167 12.8084,-4.54799 19.7188,-6.4375 13.4499,-3.6776 28.014,-7.02605 40.7812,-12.4375 12.7676,-5.41145 23.4644,-12.58556 30.5626,-23.875 7.098,-11.28944 11.1157,-27.32463 8.2812,-52.25 -1.4825,-13.03669 -4.4941,-21.88965 -6.9688,-27.34375 -1.3979,-3.08131 -2.3864,-4.78089 -3.0312,-5.75 l -194.625,55 -5.4375,-19.25 331.125,-93.562503 0,-66.718747 c 0,-44.32 -35.68,-80 -80,-80 l -352,0 z m 432,167.5 -111.3125,31.4375 c 0.5007,0.96279 1,1.96043 1.5,3.0625 3.3274,7.33437 6.9123,18.31459 8.625,33.375 3.1937,28.08443 -1.3127,49.40074 -11.2188,65.15625 -9.9058,15.75551 -24.6912,25.30006 -39.6874,31.65625 -14.9965,6.35619 -30.511,9.81223 -43.3126,13.3125 -12.8013,3.50027 -22.474,7.53244 -25.9062,11.1875 l -16.9688,18.09375 -0.3437,-24.8125 c -0.097,-7.54904 -0.9968,-13.29469 -2.4687,-17.15625 -1.4723,-3.86156 -3.132,-5.87791 -6,-7.59375 -5.7367,-3.43169 -19.3463,-4.87246 -43.1876,-0.59375 -56.8927,10.21055 -51.1044,43.16297 -48.0937,46.8125 l 18.7813,22.75 -28.75,-6.625 c -1.6754,-0.38739 -3.308,-0.24981 -6.3438,1.1875 -3.0358,1.43731 -7.0052,4.26989 -11.5312,7.9375 -9.0523,7.33522 -20.2419,17.95286 -34.9063,26.0625 -14.6644,8.10964 -33.2179,13.46106 -55.4063,10.03125 -16.4726,-2.54633 -34.7642,-9.70566 -55.4687,-23.15625 l 0,22.375 c 0,44.32 35.68,80 80,80 l 352,0 c 44.32,0 80,-35.68 80,-80 l 0,-264.5 z"
             id="path3346"
             inkscape:connector-curvature="0" />
        </g>
        <text
           sodipodi:linespacing="125%"
           id="text3348"
           y="449.0509"
           x="2542.3005"
           style="font-size:701.89385986px;font-style:normal;font-weight:normal;line-height:125%;letter-spacing:0px;word-spacing:0px;fill:#333333;fill-opacity:1;stroke:none;font-family:Sans"
           xml:space="preserve"><tspan
             style="font-weight:bold;fill:#333333;-inkscape-font-specification:Sans Bold"
             y="449.0509"
             x="2542.3005"
             id="tspan3350"
             sodipodi:role="line">KRANJCI</tspan></text>
      </g>
    </g>
  </g>
</svg>
